<?xml version="1.0" encoding="iso-8859-1"?>
<!-- Generator: Adobe Illustrator 19.0.0, SVG Export Plug-In . SVG Version: 6.00 Build 0)  -->
<svg xmlns="http://www.w3.org/2000/svg" xmlns:xlink="http://www.w3.org/1999/xlink" version="1.1" id="Capa_1" x="0px" y="0px" viewBox="0 0 512 512" style="enable-background:new 0 0 512 512;" xml:space="preserve" width="512px" height="512px">
<g>
	<g>
		<path d="M401.067,0H110.933c-4.71,0-8.533,3.823-8.533,8.533v494.933c0,4.71,3.823,8.533,8.533,8.533h290.133    c4.71,0,8.533-3.823,8.533-8.533V8.533C409.6,3.823,405.777,0,401.067,0z M392.533,494.933H119.467V17.067h273.067V494.933z" fill="#4f512f"/>
	</g>
</g>
<g>
	<g>
		<path d="M366.933,34.133H145.067c-4.71,0-8.533,3.823-8.533,8.533v460.8c0,4.71,3.823,8.533,8.533,8.533h221.867    c4.71,0,8.533-3.823,8.533-8.533v-460.8C375.467,37.956,371.644,34.133,366.933,34.133z M358.4,494.933H153.6V51.2h204.8V494.933z    " fill="#4f512f"/>
	</g>
</g>
<g>
	<g>
		<path d="M503.467,494.933H8.533c-4.71,0-8.533,3.823-8.533,8.533S3.823,512,8.533,512h494.933c4.71,0,8.533-3.823,8.533-8.533    S508.177,494.933,503.467,494.933z" fill="#4f512f"/>
	</g>
</g>
<g>
	<g>
		<path d="M213.333,264.533H179.2c-4.71,0-8.533,3.823-8.533,8.533c0,4.71,3.823,8.533,8.533,8.533h34.133    c4.71,0,8.533-3.823,8.533-8.533C221.867,268.356,218.044,264.533,213.333,264.533z" fill="#4f512f"/>
	</g>
</g>
<g>
	<g>
		<path d="M332.8,68.267H179.2c-4.71,0-8.533,3.823-8.533,8.533v162.133c0,4.71,3.823,8.533,8.533,8.533h153.6    c4.71,0,8.533-3.823,8.533-8.533V76.8C341.333,72.09,337.51,68.267,332.8,68.267z M324.267,230.4H187.733V85.333h136.533V230.4z" fill="#4f512f"/>
	</g>
</g>
<g>
	<g>
		<path d="M332.8,298.667H179.2c-4.71,0-8.533,3.823-8.533,8.533v162.133c0,4.71,3.823,8.533,8.533,8.533h153.6    c4.71,0,8.533-3.823,8.533-8.533V307.2C341.333,302.49,337.51,298.667,332.8,298.667z M324.267,460.8H187.733V315.733h136.533    V460.8z" fill="#4f512f"/>
	</g>
</g>
<g>
</g>
<g>
</g>
<g>
</g>
<g>
</g>
<g>
</g>
<g>
</g>
<g>
</g>
<g>
</g>
<g>
</g>
<g>
</g>
<g>
</g>
<g>
</g>
<g>
</g>
<g>
</g>
<g>
</g>
</svg>
